<svg xmlns="http://www.w3.org/2000/svg" xmlns:xlink="http://www.w3.org/1999/xlink" width="1920" zoomAndPan="magnify" viewBox="0 0 1440 809.999993" height="1080" preserveAspectRatio="xMidYMid meet" version="1.0"><defs><clipPath id="639df9daac"><path d="M 283.453125 25 L 1156.449219 25 L 1156.449219 785 L 283.453125 785 Z M 283.453125 25 " clip-rule="nonzero"/></clipPath><clipPath id="50763cf2c1"><path d="M 757.816406 33.425781 L 1118.71875 190.535156 C 1141.6875 200.535156 1156.539062 223.199219 1156.539062 248.25 L 1156.539062 561.738281 C 1156.539062 586.789062 1141.6875 609.453125 1118.71875 619.453125 L 757.816406 776.5625 C 733.695312 787.0625 706.296875 787.0625 682.175781 776.5625 L 321.273438 619.453125 C 298.304688 609.453125 283.453125 586.789062 283.453125 561.738281 L 283.453125 248.25 C 283.453125 223.199219 298.304688 200.535156 321.273438 190.535156 L 682.175781 33.425781 C 706.296875 22.925781 733.695312 22.925781 757.816406 33.425781 Z M 757.816406 33.425781 " clip-rule="nonzero"/></clipPath></defs><rect x="-144" width="1728" fill="#ffffff" y="-80.999999" height="971.999992" fill-opacity="1"/><rect x="-144" width="1728" fill="#ffffff" y="-80.999999" height="971.999992" fill-opacity="1"/><g clip-path="url(#639df9daac)"><g clip-path="url(#50763cf2c1)"><path stroke-linecap="butt" transform="matrix(0.75, 0, 0, 0.75, 283.451565, 16.963003)" fill="none" stroke-linejoin="miter" d="M 632.486487 21.950372 L 1113.689636 231.429549 C 1144.314638 244.762883 1164.116722 274.981635 1164.116722 308.382678 L 1164.116722 726.367074 C 1164.116722 759.768117 1144.314638 789.986869 1113.689636 803.320203 L 632.486487 1012.79938 C 600.325027 1026.799381 563.793775 1026.799381 531.632315 1012.79938 L 50.429166 803.320203 C 19.804165 789.986869 0.00208032 759.768117 0.00208032 726.367074 L 0.00208032 308.382678 C 0.00208032 274.981635 19.804165 244.762883 50.429166 231.429549 L 531.632315 21.950372 C 563.793775 7.950371 600.325027 7.950371 632.486487 21.950372 Z M 632.486487 21.950372 " stroke="#6f2fce" stroke-width="152" stroke-opacity="1" stroke-miterlimit="4"/></g></g></svg>