<svg width="200" height="200" viewBox="0 0 200 200" fill="none" xmlns="http://www.w3.org/2000/svg">
  <rect x="70" y="40" width="60" height="120" rx="2" fill="#333333"/>
  <rect x="60" y="50" width="80" height="5" fill="#444444"/>
  <rect x="60" y="70" width="80" height="5" fill="#444444"/>
  <rect x="60" y="90" width="80" height="5" fill="#444444"/>
  <rect x="60" y="110" width="80" height="5" fill="#444444"/>
  <rect x="60" y="130" width="80" height="5" fill="#444444"/>
  <rect x="60" y="150" width="80" height="5" fill="#444444"/>
  <circle cx="100" cy="100" r="25" fill="#222222"/>
  <path d="M100 85C105.523 85 110 89.4772 110 95C110 100.523 105.523 105 100 105C94.4772 105 90 100.523 90 95C90 89.4772 94.4772 85 100 85Z" fill="#333333"/>
  <path d="M85 100C85 94.4772 89.4772 90 95 90C100.523 90 105 94.4772 105 100C105 105.523 100.523 110 95 110C89.4772 110 85 105.523 85 100Z" fill="#333333"/>
  <path d="M95 115C89.4772 115 85 110.523 85 105C85 99.4772 89.4772 95 95 95C100.523 95 105 99.4772 105 105C105 110.523 100.523 115 95 115Z" fill="#333333"/>
  <path d="M115 105C109.477 105 105 100.523 105 95C105 89.4772 109.477 85 115 85C120.523 85 125 89.4772 125 95C125 100.523 120.523 105 115 105Z" fill="#333333"/>
</svg> 